<svg width="320" height="70" viewBox="0 0 320 70" fill="none" xmlns="http://www.w3.org/2000/svg">
<g clip-path="url(#clip0_1_15)">
<path d="M47.2346 34.6848C48.1705 33.0638 50.5103 33.0638 51.4463 34.6848L64.9236 58.0283C65.8595 59.6494 64.6896 61.6757 62.8178 61.6757H35.8631C33.9912 61.6757 32.8213 59.6494 33.7572 58.0283L47.2346 34.6848Z" fill="#1E1E1E" stroke="#1E1E1E" stroke-width="1.3617"/>
<path d="M52.0359 36.3364C50.8379 38.4114 47.8429 38.4114 46.645 36.3364L33.1676 12.993C31.9696 10.918 33.4671 8.32428 35.8631 8.32428H62.8178C65.2137 8.32428 66.7112 10.918 65.5132 12.993L52.0359 36.3364Z" fill="#1E1E1E"/>
</g>
<path d="M79.3181 48V21.8182H96.9602V26.3821H84.8536V32.6207H96.0525V37.1847H84.8536V43.4361H97.0113V48H79.3181ZM106.705 36.6477V48H101.259V28.3636H106.449V31.8281H106.679C107.114 30.6861 107.843 29.7827 108.865 29.1179C109.888 28.4446 111.128 28.108 112.586 28.108C113.949 28.108 115.138 28.4062 116.152 29.0028C117.166 29.5994 117.955 30.4517 118.517 31.5597C119.08 32.6591 119.361 33.9716 119.361 35.4972V48H113.915V36.4688C113.924 35.267 113.617 34.3295 112.995 33.6562C112.372 32.9744 111.516 32.6335 110.425 32.6335C109.692 32.6335 109.044 32.7912 108.482 33.1065C107.928 33.4219 107.493 33.8821 107.178 34.4872C106.871 35.0838 106.713 35.804 106.705 36.6477ZM132.526 48.3835C130.514 48.3835 128.784 47.9574 127.335 47.1051C125.895 46.2443 124.787 45.0511 124.011 43.5256C123.244 42 122.861 40.2443 122.861 38.2585C122.861 36.2472 123.249 34.483 124.024 32.9659C124.808 31.4403 125.92 30.2514 127.361 29.3991C128.801 28.5384 130.514 28.108 132.5 28.108C134.213 28.108 135.713 28.419 137 29.0412C138.287 29.6634 139.305 30.5369 140.055 31.6619C140.805 32.7869 141.219 34.108 141.295 35.625H136.156C136.011 34.6449 135.628 33.8565 135.006 33.2599C134.392 32.6548 133.587 32.3523 132.589 32.3523C131.746 32.3523 131.008 32.5824 130.378 33.0426C129.756 33.4943 129.27 34.1548 128.92 35.0241C128.571 35.8935 128.396 36.946 128.396 38.1818C128.396 39.4347 128.567 40.5 128.908 41.3778C129.257 42.2557 129.747 42.9247 130.378 43.3849C131.008 43.8452 131.746 44.0753 132.589 44.0753C133.212 44.0753 133.77 43.9474 134.264 43.6918C134.767 43.4361 135.18 43.0653 135.504 42.5795C135.837 42.0852 136.054 41.4929 136.156 40.8026H141.295C141.21 42.3026 140.801 43.6236 140.068 44.7656C139.344 45.8991 138.342 46.7855 137.064 47.4247C135.785 48.0639 134.273 48.3835 132.526 48.3835ZM150.382 48.3707C149.129 48.3707 148.012 48.1534 147.032 47.7188C146.052 47.2756 145.277 46.6236 144.706 45.7628C144.143 44.8935 143.862 43.8111 143.862 42.5156C143.862 41.4247 144.062 40.5085 144.463 39.767C144.863 39.0256 145.409 38.429 146.099 37.9773C146.789 37.5256 147.573 37.1847 148.451 36.9545C149.338 36.7244 150.267 36.5625 151.238 36.4688C152.38 36.3494 153.301 36.2386 154 36.1364C154.698 36.0256 155.206 35.8636 155.521 35.6506C155.836 35.4375 155.994 35.1222 155.994 34.7045V34.6278C155.994 33.8182 155.738 33.1918 155.227 32.7486C154.724 32.3054 154.008 32.0838 153.079 32.0838C152.099 32.0838 151.319 32.3011 150.74 32.7358C150.16 33.1619 149.777 33.6989 149.589 34.3466L144.552 33.9375C144.808 32.7443 145.311 31.7131 146.061 30.8438C146.811 29.9659 147.778 29.2926 148.963 28.8239C150.156 28.3466 151.537 28.108 153.105 28.108C154.196 28.108 155.24 28.2358 156.237 28.4915C157.242 28.7472 158.133 29.1435 158.909 29.6804C159.693 30.2173 160.311 30.9077 160.762 31.7514C161.214 32.5866 161.44 33.5881 161.44 34.7557V48H156.275V45.277H156.122C155.806 45.8906 155.385 46.4318 154.856 46.9006C154.328 47.3608 153.693 47.723 152.951 47.9872C152.21 48.2429 151.353 48.3707 150.382 48.3707ZM151.941 44.6122C152.742 44.6122 153.45 44.4545 154.064 44.1392C154.677 43.8153 155.159 43.3807 155.508 42.8352C155.858 42.2898 156.032 41.6719 156.032 40.9815V38.8977C155.862 39.0085 155.627 39.1108 155.329 39.2045C155.039 39.2898 154.711 39.3707 154.345 39.4474C153.978 39.5156 153.612 39.5795 153.245 39.6392C152.879 39.6903 152.546 39.7372 152.248 39.7798C151.609 39.8736 151.051 40.0227 150.573 40.2273C150.096 40.4318 149.725 40.7088 149.461 41.0582C149.197 41.3991 149.065 41.8253 149.065 42.3366C149.065 43.0781 149.333 43.6449 149.87 44.0369C150.416 44.4205 151.106 44.6122 151.941 44.6122ZM165.665 55.3636V28.3636H171.034V31.6619H171.277C171.516 31.1335 171.861 30.5966 172.313 30.0511C172.773 29.4972 173.37 29.0369 174.103 28.6705C174.844 28.2955 175.765 28.108 176.864 28.108C178.296 28.108 179.617 28.483 180.827 29.233C182.037 29.9744 183.005 31.0952 183.729 32.5952C184.453 34.0866 184.816 35.9574 184.816 38.2074C184.816 40.3977 184.462 42.2472 183.755 43.7557C183.056 45.2557 182.101 46.3935 180.891 47.169C179.689 47.9361 178.343 48.3196 176.851 48.3196C175.794 48.3196 174.895 48.1449 174.154 47.7955C173.421 47.446 172.82 47.0071 172.351 46.4787C171.882 45.9418 171.524 45.4006 171.277 44.8551H171.111V55.3636H165.665ZM170.996 38.1818C170.996 39.3494 171.158 40.3679 171.482 41.2372C171.806 42.1065 172.274 42.7841 172.888 43.2699C173.502 43.7472 174.247 43.9858 175.125 43.9858C176.012 43.9858 176.762 43.7429 177.375 43.2571C177.989 42.7628 178.453 42.081 178.769 41.2116C179.093 40.3338 179.255 39.3239 179.255 38.1818C179.255 37.0483 179.097 36.0511 178.782 35.1903C178.466 34.3295 178.002 33.6562 177.388 33.1705C176.774 32.6847 176.02 32.4418 175.125 32.4418C174.239 32.4418 173.489 32.6761 172.875 33.1449C172.27 33.6136 171.806 34.2784 171.482 35.1392C171.158 36 170.996 37.0142 170.996 38.1818ZM202.943 32.7614L200.233 33.5284C200.063 33.0767 199.811 32.6378 199.479 32.2116C199.155 31.777 198.712 31.419 198.149 31.1378C197.587 30.8565 196.867 30.7159 195.989 30.7159C194.787 30.7159 193.786 30.9929 192.985 31.5469C192.192 32.0923 191.796 32.7869 191.796 33.6307C191.796 34.3807 192.068 34.973 192.614 35.4077C193.159 35.8423 194.012 36.2045 195.171 36.4943L198.086 37.2102C199.841 37.6364 201.149 38.2884 202.01 39.1662C202.871 40.0355 203.301 41.1562 203.301 42.5284C203.301 43.6534 202.978 44.6591 202.33 45.5455C201.691 46.4318 200.796 47.1307 199.645 47.642C198.495 48.1534 197.157 48.4091 195.631 48.4091C193.628 48.4091 191.97 47.9744 190.658 47.1051C189.345 46.2358 188.515 44.9659 188.165 43.2955L191.029 42.5795C191.301 43.6364 191.817 44.429 192.576 44.9574C193.343 45.4858 194.344 45.75 195.58 45.75C196.986 45.75 198.103 45.4517 198.929 44.8551C199.765 44.25 200.182 43.5256 200.182 42.6818C200.182 42 199.943 41.429 199.466 40.9688C198.989 40.5 198.256 40.1506 197.267 39.9205L193.995 39.1534C192.196 38.7273 190.875 38.0668 190.032 37.1719C189.196 36.2685 188.779 35.1392 188.779 33.7841C188.779 32.6761 189.09 31.696 189.712 30.8438C190.343 29.9915 191.199 29.3224 192.282 28.8366C193.372 28.3509 194.608 28.108 195.989 28.108C197.932 28.108 199.458 28.5341 200.566 29.3864C201.682 30.2386 202.475 31.3636 202.943 32.7614ZM220.218 39.9716V28.3636H223.235V48H220.218V44.6761H220.013C219.553 45.6733 218.837 46.5213 217.866 47.2202C216.894 47.9105 215.667 48.2557 214.184 48.2557C212.957 48.2557 211.866 47.9872 210.911 47.4503C209.957 46.9048 209.207 46.0866 208.661 44.9957C208.116 43.8963 207.843 42.5114 207.843 40.8409V28.3636H210.86V40.6364C210.86 42.0682 211.261 43.2102 212.062 44.0625C212.871 44.9148 213.903 45.3409 215.155 45.3409C215.905 45.3409 216.668 45.1491 217.444 44.7656C218.228 44.3821 218.884 43.794 219.413 43.0014C219.95 42.2088 220.218 41.1989 220.218 39.9716ZM231.778 21.8182V48H228.761V21.8182H231.778ZM243.082 48.4602C241.838 48.4602 240.709 48.2259 239.695 47.7571C238.68 47.2798 237.875 46.5938 237.278 45.6989C236.682 44.7955 236.383 43.7045 236.383 42.4261C236.383 41.3011 236.605 40.3892 237.048 39.6903C237.491 38.983 238.084 38.429 238.825 38.0284C239.567 37.6278 240.385 37.3295 241.28 37.1335C242.183 36.929 243.091 36.767 244.003 36.6477C245.196 36.4943 246.163 36.3793 246.905 36.3026C247.655 36.2173 248.2 36.0767 248.541 35.8807C248.891 35.6847 249.065 35.3437 249.065 34.858V34.7557C249.065 33.4943 248.72 32.5142 248.03 31.8153C247.348 31.1165 246.312 30.767 244.923 30.767C243.483 30.767 242.354 31.0824 241.535 31.7131C240.717 32.3437 240.142 33.017 239.81 33.733L236.946 32.7102C237.457 31.517 238.139 30.5881 238.991 29.9233C239.852 29.25 240.79 28.7812 241.804 28.517C242.827 28.2443 243.832 28.108 244.821 28.108C245.452 28.108 246.176 28.1847 246.994 28.3381C247.821 28.483 248.618 28.7855 249.385 29.2457C250.16 29.706 250.804 30.4006 251.315 31.3295C251.827 32.2585 252.082 33.5028 252.082 35.0625V48H249.065V45.3409H248.912C248.707 45.767 248.366 46.223 247.889 46.7088C247.412 47.1946 246.777 47.608 245.984 47.9489C245.192 48.2898 244.224 48.4602 243.082 48.4602ZM243.543 45.75C244.736 45.75 245.741 45.5156 246.56 45.0469C247.386 44.5781 248.008 43.973 248.426 43.2315C248.852 42.4901 249.065 41.7102 249.065 40.892V38.1307C248.937 38.2841 248.656 38.4247 248.222 38.5526C247.795 38.6719 247.301 38.7784 246.739 38.8722C246.185 38.9574 245.643 39.0341 245.115 39.1023C244.595 39.1619 244.173 39.2131 243.849 39.2557C243.065 39.358 242.332 39.5241 241.651 39.7543C240.977 39.9759 240.432 40.3125 240.014 40.7642C239.605 41.2074 239.401 41.8125 239.401 42.5795C239.401 43.6278 239.788 44.4205 240.564 44.9574C241.348 45.4858 242.341 45.75 243.543 45.75ZM266.129 28.3636V30.9205H255.953V28.3636H266.129ZM258.919 23.6591H261.936V42.375C261.936 43.2273 262.059 43.8665 262.306 44.2926C262.562 44.7102 262.886 44.9915 263.278 45.1364C263.679 45.2727 264.1 45.3409 264.544 45.3409C264.876 45.3409 265.149 45.3239 265.362 45.2898C265.575 45.2472 265.745 45.2131 265.873 45.1875L266.487 47.8977C266.282 47.9744 265.997 48.0511 265.63 48.1278C265.264 48.2131 264.799 48.2557 264.237 48.2557C263.385 48.2557 262.549 48.0724 261.731 47.706C260.921 47.3395 260.248 46.7812 259.711 46.0312C259.183 45.2812 258.919 44.3352 258.919 43.1932V23.6591ZM278.689 48.4091C276.797 48.4091 275.165 47.9915 273.793 47.1562C272.429 46.3125 271.377 45.1364 270.635 43.6278C269.902 42.1108 269.536 40.3466 269.536 38.3352C269.536 36.3239 269.902 34.5511 270.635 33.017C271.377 31.4744 272.408 30.2727 273.729 29.4119C275.059 28.5426 276.61 28.108 278.382 28.108C279.405 28.108 280.415 28.2784 281.412 28.6193C282.409 28.9602 283.317 29.5142 284.135 30.2812C284.953 31.0398 285.605 32.0455 286.091 33.2983C286.577 34.5511 286.82 36.0937 286.82 37.9261V39.2045H271.684V36.5966H283.752C283.752 35.4886 283.53 34.5 283.087 33.6307C282.652 32.7614 282.03 32.0753 281.22 31.5724C280.419 31.0696 279.473 30.8182 278.382 30.8182C277.181 30.8182 276.141 31.1165 275.263 31.7131C274.394 32.3011 273.725 33.0682 273.256 34.0142C272.787 34.9602 272.553 35.9744 272.553 37.0568V38.7955C272.553 40.2784 272.809 41.5355 273.32 42.5668C273.84 43.5895 274.56 44.3693 275.48 44.9062C276.401 45.4347 277.47 45.6989 278.689 45.6989C279.482 45.6989 280.198 45.5881 280.837 45.3665C281.485 45.1364 282.043 44.7955 282.512 44.3438C282.98 43.8835 283.343 43.3125 283.598 42.6307L286.513 43.4489C286.206 44.4375 285.691 45.3068 284.966 46.0568C284.242 46.7983 283.347 47.3778 282.282 47.7955C281.216 48.2045 280.019 48.4091 278.689 48.4091Z" fill="#1E1E1E"/>
<defs>
<clipPath id="clip0_1_15">
<rect width="36.0851" height="64" fill="white" transform="translate(30.9574 3)"/>
</clipPath>
</defs>
</svg>
