<svg  version="1.1" baseProfile="basic" id="Layer_1" xmlns="http://www.w3.org/2000/svg" width="83.34" height="83.34"
	 viewBox="0 0 83.34 83.34" overflow="visible" enableBackground="new 0 0 83.34 83.34">
<g id="XMLID_1_">
	<g>
		<path fill="#010101" d="M75,58.34v-50H8.34v50h25v12.83l12.83-12.83H75z M83.34,8.34v50c0,4.6-3.729,8.33-8.34,8.33H49.59
			L34.17,82.13c-0.83,0.79-1.88,1.21-2.92,1.21h-2.08c-2.3,0-4.17-1.87-4.17-4.17v-12.5H8.34c-4.61,0-8.34-3.73-8.34-8.33v-50
			C0,3.71,3.75,0,8.34,0H75C79.61,0,83.34,3.73,83.34,8.34z"/>
		<polygon fill="#FFFFFF" points="75,8.34 75,58.34 46.17,58.34 33.34,71.17 33.34,58.34 8.34,58.34 8.34,8.34 		"/>
	</g>
	<g>
	</g>
</g>
</svg>
