<svg  version="1.1" baseProfile="basic" id="Layer_1" xmlns="http://www.w3.org/2000/svg" width="66.66" height="87.5"
	 viewBox="0 0 66.66 87.5" overflow="visible" enableBackground="new 0 0 66.66 87.5">
<g id="XMLID_5_">
	<g>
		<path fill="#010101" d="M8.33,79.16h50V37.5h-50V79.16z M58.33,87.5h-50C3.71,87.5,0,83.75,0,79.16V37.5
			c0-4.63,3.71-8.34,8.33-8.34h4.17v-8.33C12.5,9.32,21.82,0,33.33,0s20.83,9.32,20.83,20.83v8.33h4.17c4.6,0,8.33,3.73,8.33,8.34
			v41.66C66.66,83.771,62.93,87.5,58.33,87.5z M45.83,29.16v-8.33c0-6.9-5.6-12.5-12.5-12.5c-6.9,0-12.5,5.6-12.5,12.5v8.33H45.83z"
			/>
		<path fill="#FFFFFF" d="M58.33,79.16h-50V37.5h50V79.16z M41.66,58.33c0-4.6-3.73-8.33-8.33-8.33C28.71,50,25,53.71,25,58.33
			c0,4.58,3.71,8.33,8.33,8.33C37.93,66.66,41.66,62.93,41.66,58.33z"/>
		<path fill="#010101" d="M33.33,50c4.6,0,8.33,3.73,8.33,8.33s-3.73,8.33-8.33,8.33c-4.62,0-8.33-3.75-8.33-8.33
			C25,53.71,28.71,50,33.33,50z"/>
	</g>
	<g>
	</g>
</g>
</svg>
