<svg  version="1.1" baseProfile="basic" id="Layer_1" xmlns="http://www.w3.org/2000/svg" width="66.66" height="87.5"
	 viewBox="0 0 66.66 87.5" overflow="visible" enableBackground="new 0 0 66.66 87.5">
<g id="XMLID_1_">
	<g>
		<circle fill="#010101" cx="33.33" cy="58.33" r="8.33"/>
		<path fill="#010101" d="M8.33,79.16V37.5h50v41.66H8.33z M20.83,20.83c0-6.9,5.6-12.5,12.5-12.5c6.9,0,12.5,5.6,12.5,12.5h8.33
			C54.16,9.32,44.84,0,33.33,0S12.5,9.32,12.5,20.83v8.33H8.33C3.73,29.16,0,32.89,0,37.5v41.66c0,4.61,3.73,8.34,8.33,8.34h50
			c4.62,0,8.33-3.75,8.33-8.34V37.5c0-4.61-3.73-8.34-8.33-8.34h-37.5V20.83z"/>
		<path fill="#FFFFFF" d="M8.33,79.16h50V37.5h-50V79.16z M25,58.33c0-4.6,3.73-8.33,8.33-8.33c4.6,0,8.33,3.73,8.33,8.33
			s-3.73,8.33-8.33,8.33C28.73,66.66,25,62.93,25,58.33z"/>
	</g>
	<g>
	</g>
</g>
</svg>
