<svg  version="1.1" baseProfile="basic" id="Layer_1" xmlns="http://www.w3.org/2000/svg" width="83.34" height="83.34"
	 viewBox="0 0 83.34 83.34" overflow="visible" enableBackground="new 0 0 83.34 83.34">
<g id="XMLID_7_">
	<g>
		<path fill="#010101" d="M66.67,58.34C66.55,50,50,45.42,41.67,45.42s-24.88,4.58-25,12.92c5.38,8,14.58,13.33,25,13.33
			S61.29,66.34,66.67,58.34z M41.67,0c22.92,0,41.67,18.63,41.67,41.67c0,23.01-18.66,41.67-41.67,41.67S0,64.68,0,41.67
			S18.66,0,41.67,0z M54.17,25c0-6.9-5.6-12.5-12.5-12.5c-6.9,0-12.5,5.6-12.5,12.5c0,6.91,5.6,12.5,12.5,12.5
			C48.57,37.5,54.17,31.91,54.17,25z"/>
		<path fill="#FFFFFF" d="M41.67,45.42c8.33,0,24.88,4.58,25,12.92c-5.38,8-14.58,13.33-25,13.33s-19.62-5.33-25-13.33
			C16.79,50,33.34,45.42,41.67,45.42z"/>
		<path fill="#FFFFFF" d="M41.67,12.5c6.9,0,12.5,5.6,12.5,12.5c0,6.91-5.6,12.5-12.5,12.5c-6.9,0-12.5-5.59-12.5-12.5
			C29.17,18.1,34.77,12.5,41.67,12.5z"/>
	</g>
	<g>
	</g>
</g>
</svg>
