<svg  version="1.1" baseProfile="basic" id="Layer_1" xmlns="http://www.w3.org/2000/svg" width="83.34" height="83.34"
	 viewBox="0 0 83.34 83.34" overflow="visible" enableBackground="new 0 0 83.34 83.34">
<g>
	<g id="XMLID_4_">
		<g>
			<path fill="#FFFFFF" d="M29.17,33c0-6.9,5.6-12.5,12.5-12.5c6.9,0,12.5,5.6,12.5,12.5c0,6.52-4.98,11.86-11.33,12.45
				c-0.41-0.021-0.8-0.03-1.17-0.03s-0.76,0.01-1.17,0.03C34.15,44.86,29.17,39.52,29.17,33z"/>
			<path fill="#010101" d="M16.67,58.34c5.38,8,14.58,13.33,25,13.33s19.62-5.33,25-13.33c-0.11-7.97-15.22-12.5-23.83-12.89
				c6.35-0.59,11.33-5.93,11.33-12.45c0-6.9-5.6-12.5-12.5-12.5c-6.9,0-12.5,5.6-12.5,12.5c0,6.52,4.98,11.86,11.33,12.45
				C31.89,45.84,16.78,50.37,16.67,58.34z M83.34,41.67c0,23.01-18.66,41.67-41.67,41.67S0,64.68,0,41.67S18.66,0,41.67,0
				C64.59,0,83.34,18.63,83.34,41.67z"/>
			<path fill="#FFFFFF" d="M42.84,45.45c8.61,0.39,23.72,4.92,23.83,12.89c-5.38,8-14.58,13.33-25,13.33s-19.62-5.33-25-13.33
				c0.11-7.97,15.22-12.5,23.83-12.89c0.39,0.029,0.78,0.05,1.17,0.05S42.45,45.479,42.84,45.45z"/>
			<path fill="#FFFFFF" d="M41.67,45.42c0.37,0,0.76,0.01,1.17,0.03c-0.39,0.029-0.78,0.05-1.17,0.05s-0.78-0.021-1.17-0.05
				C40.91,45.43,41.3,45.42,41.67,45.42z"/>
		</g>
		<g>
		</g>
	</g>
</g>
</svg>
