<?xml version="1.0" encoding="utf-8"?>
<!-- Generator: Adobe Illustrator 12.0.0, SVG Export Plug-In . SVG Version: 6.00 Build 51448)  -->
<!DOCTYPE svg PUBLIC "-//W3C//DTD SVG 1.1//EN" "http://www.w3.org/Graphics/SVG/1.1/DTD/svg11.dtd" [
	<!ENTITY ns_svg "http://www.w3.org/2000/svg">
	<!ENTITY ns_xlink "http://www.w3.org/1999/xlink">
]>
<svg  version="1.1" id="Layer_1" xmlns="&ns_svg;" xmlns:xlink="&ns_xlink;" width="612" height="612" viewBox="0 0 612 612"
	 overflow="visible" enableBackground="new 0 0 612 612" xml:space="preserve">
<g id="XMLID_1_">
	<g>
		<path fill="#EF3535" d="M11.4-69.56l-6.95-6.53c-1.96-1.84-2.19-4.86-0.55-6.98l0.31-0.4c1.97-2.54,5.92-2.11,7.3,0.78
			c0.2,0.41,0.78,0.41,0.98,0c1.38-2.89,5.33-3.32,7.3-0.78l0.31,0.4c1.64,2.12,1.41,5.14-0.55,6.98l-6.95,6.53
			c-0.24,0.22-0.36,0.34-0.5,0.36c-0.07,0.02-0.13,0.02-0.2,0C11.76-69.22,11.64-69.34,11.4-69.56z"/>
	</g>
	<g>
		<path fill="none" stroke="#33363F" d="M12.49-82.69c-0.2,0.41-0.78,0.41-0.98,0c-1.38-2.89-5.33-3.32-7.3-0.78l-0.31,0.4
			c-1.64,2.12-1.41,5.14,0.55,6.98l6.95,6.53c0.24,0.22,0.36,0.34,0.5,0.36c0.07,0.02,0.13,0.02,0.2,0c0.14-0.02,0.26-0.14,0.5-0.36
			l6.95-6.53c1.96-1.84,2.19-4.86,0.55-6.98l-0.31-0.4C17.82-86.01,13.87-85.58,12.49-82.69z"/>
	</g>
</g>
</svg>
